{
  "accessors": [
    {
      "bufferView": 2,
      "componentType": 5126,
      "count": 2725,
      "max": [
        11.40000057220459,
        9.399999618530273,
        10.360000610351563
      ],
      "min": [
        -11.40000057220459,
        0.0,
        -5.0
      ],
      "type": "VEC3"
    },
    {
      "bufferView": 2,
      "byteOffset": 32700,
      "componentType": 5126,
      "count": 2725,
      "max": [
        1.0,
        1.0,
        1.0
      ],
      "min": [
        -1.0,
        -1.0,
        -1.0
      ],
      "type": "VEC3"
    },
    {
      "bufferView": 1,
      "componentType": 5126,
      "count": 2725,
      "max": [
        0.98603355884552,
        1.0
      ],
      "min": [
        0.0,
        0.0043128132820129395
      ],
      "type": "VEC2"
    },
    {
      "bufferView": 0,
      "componentType": 5125,
      "count": 4488,
      "type": "SCALAR"
    },
    {
      "bufferView": 2,
      "byteOffset": 65400,
      "componentType": 5126,
      "count": 1393,
      "max": [
        11.40000057220459,
        9.199999809265137,
        10.360000610351563
      ],
      "min": [
        -11.40000057220459,
        0.0,
        -5.0
      ],
      "type": "VEC3"
    },
    {
      "bufferView": 2,
      "byteOffset": 82116,
      "componentType": 5126,
      "count": 1393,
      "max": [
        1.0,
        1.0,
        1.0
      ],
      "min": [
        -1.0,
        -1.0,
        -1.0
      ],
      "type": "VEC3"
    },
    {
      "bufferView": 1,
      "byteOffset": 21800,
      "componentType": 5126,
      "count": 1393,
      "max": [
        0.9823312759399414,
        1.0
      ],
      "min": [
        0.0,
        5.960464477539063e-08
      ],
      "type": "VEC2"
    },
    {
      "bufferView": 0,
      "byteOffset": 17952,
      "componentType": 5125,
      "count": 2844,
      "type": "SCALAR"
    },
    {
      "bufferView": 2,
      "byteOffset": 98832,
      "componentType": 5126,
      "count": 19480,
      "max": [
        11.0,
        7.520000457763672,
        10.360000610351563
      ],
      "min": [
        -11.0,
        0.0,
        -5.0
      ],
      "type": "VEC3"
    },
    {
      "bufferView": 2,
      "byteOffset": 332592,
      "componentType": 5126,
      "count": 19480,
      "max": [
        1.0,
        1.0,
        1.0
      ],
      "min": [
        -1.0,
        -1.0,
        -1.0
      ],
      "type": "VEC3"
    },
    {
      "bufferView": 1,
      "byteOffset": 32944,
      "componentType": 5126,
      "count": 19480,
      "max": [
        0.989443302154541,
        1.0
      ],
      "min": [
        0.0,
        0.010559558868408203
      ],
      "type": "VEC2"
    },
    {
      "bufferView": 0,
      "byteOffset": 29328,
      "componentType": 5125,
      "count": 32664,
      "type": "SCALAR"
    },
    {
      "bufferView": 2,
      "byteOffset": 566352,
      "componentType": 5126,
      "count": 380,
      "max": [
        11.200000762939453,
        9.399999618530273,
        10.19999885559082
      ],
      "min": [
        -11.200000762939453,
        0.017609775066375732,
        -5.000000476837158
      ],
      "type": "VEC3"
    },
    {
      "bufferView": 2,
      "byteOffset": 570912,
      "componentType": 5126,
      "count": 380,
      "max": [
        1.0,
        0.0,
        1.0
      ],
      "min": [
        -1.0,
        -1.0,
        -1.0
      ],
      "type": "VEC3"
    },
    {
      "bufferView": 1,
      "byteOffset": 188784,
      "componentType": 5126,
      "count": 380,
      "max": [
        0.980678141117096,
        1.0
      ],
      "min": [
        0.020195916295051575,
        0.01827859878540039
      ],
      "type": "VEC2"
    },
    {
      "bufferView": 0,
      "byteOffset": 159984,
      "componentType": 5125,
      "count": 588,
      "type": "SCALAR"
    },
    {
      "bufferView": 2,
      "byteOffset": 575472,
      "componentType": 5126,
      "count": 1054,
      "max": [
        11.200000762939453,
        9.399999618530273,
        10.19999885559082
      ],
      "min": [
        -11.200000762939453,
        0.0,
        -5.000000476837158
      ],
      "type": "VEC3"
    },
    {
      "bufferView": 2,
      "byteOffset": 588120,
      "componentType": 5126,
      "count": 1054,
      "max": [
        1.0,
        1.0,
        1.0
      ],
      "min": [
        -1.0,
        -1.0,
        -1.0
      ],
      "type": "VEC3"
    },
    {
      "bufferView": 1,
      "byteOffset": 191824,
      "componentType": 5126,
      "count": 1054,
      "max": [
        0.9996500015258789,
        1.0
      ],
      "min": [
        0.03101801872253418,
        0.0002837181091308594
      ],
      "type": "VEC2"
    },
    {
      "bufferView": 0,
      "byteOffset": 162336,
      "componentType": 5125,
      "count": 1812,
      "type": "SCALAR"
    },
    {
      "bufferView": 2,
      "byteOffset": 600768,
      "componentType": 5126,
      "count": 10502,
      "max": [
        10.258645057678223,
        8.600000381469727,
        9.685789108276367
      ],
      "min": [
        -10.58047103881836,
        0.3902758061885834,
        -1.9500000476837158
      ],
      "type": "VEC3"
    },
    {
      "bufferView": 2,
      "byteOffset": 726792,
      "componentType": 5126,
      "count": 10502,
      "max": [
        1.0,
        1.0,
        1.0
      ],
      "min": [
        -1.0,
        -1.0,
        -1.0
      ],
      "type": "VEC3"
    },
    {
      "bufferView": 1,
      "byteOffset": 200256,
      "componentType": 5126,
      "count": 10502,
      "max": [
        0.9904298782348633,
        0.7056775093078613
      ],
      "min": [
        0.0,
        0.009557127952575684
      ],
      "type": "VEC2"
    },
    {
      "bufferView": 0,
      "byteOffset": 169584,
      "componentType": 5125,
      "count": 17352,
      "type": "SCALAR"
    },
    {
      "bufferView": 2,
      "byteOffset": 852816,
      "componentType": 5126,
      "count": 552,
      "max": [
        11.0,
        1.941733479499817,
        10.309998512268066
      ],
      "min": [
        -11.000000953674316,
        0.10000000149011612,
        -1.0967259407043457
      ],
      "type": "VEC3"
    },
    {
      "bufferView": 2,
      "byteOffset": 859440,
      "componentType": 5126,
      "count": 552,
      "max": [
        0.9267597794532776,
        1.0,
        0.6724275946617126
      ],
      "min": [
        -0.9267621040344238,
        -1.0,
        -0.6522311568260193
      ],
      "type": "VEC3"
    },
    {
      "bufferView": 1,
      "byteOffset": 284272,
      "componentType": 5126,
      "count": 552,
      "max": [
        0.9263496398925781,
        0.576848030090332
      ],
      "min": [
        0.014128684997558594,
        0.03845703601837158
      ],
      "type": "VEC2"
    },
    {
      "bufferView": 0,
      "byteOffset": 238992,
      "componentType": 5125,
      "count": 1080,
      "type": "SCALAR"
    },
    {
      "bufferView": 2,
      "byteOffset": 866064,
      "componentType": 5126,
      "count": 3772,
      "max": [
        10.258645057678223,
        2.484675884246826,
        9.685789108276367
      ],
      "min": [
        -10.58047103881836,
        0.7641358971595764,
        3.173027992248535
      ],
      "type": "VEC3"
    },
    {
      "bufferView": 2,
      "byteOffset": 911328,
      "componentType": 5126,
      "count": 3772,
      "max": [
        0.2724171578884125,
        1.0,
        1.0
      ],
      "min": [
        -0.2724171578884125,
        -0.16440381109714508,
        -1.0
      ],
      "type": "VEC3"
    },
    {
      "bufferView": 1,
      "byteOffset": 288688,
      "componentType": 5126,
      "count": 3772,
      "max": [
        0.9800701141357422,
        0.5939527750015259
      ],
      "min": [
        0.0,
        0.01968449354171753
      ],
      "type": "VEC2"
    },
    {
      "bufferView": 0,
      "byteOffset": 243312,
      "componentType": 5125,
      "count": 6336,
      "type": "SCALAR"
    }
  ],
  "asset": {
    "extras": {
      "author": "Adam Bajgar (https://sketchfab.com/adam.bajgar)",
      "license": "CC-BY-4.0 (http://creativecommons.org/licenses/by/4.0/)",
      "source": "https://sketchfab.com/3d-models/lowpoly-modern-auditorium-classroom-642c25cc8f2d45d68d3f3d564d0feb6d",
      "title": "LowPoly Modern Auditorium Classroom"
    },
    "generator": "Sketchfab-14.75.0",
    "version": "2.0"
  },
  "bufferViews": [
    {
      "buffer": 0,
      "byteLength": 268656,
      "name": "floatBufferViews",
      "target": 34963
    },
    {
      "buffer": 0,
      "byteLength": 318864,
      "byteOffset": 268656,
      "byteStride": 8,
      "name": "floatBufferViews",
      "target": 34962
    },
    {
      "buffer": 0,
      "byteLength": 956592,
      "byteOffset": 587520,
      "byteStride": 12,
      "name": "floatBufferViews",
      "target": 34962
    }
  ],
  "buffers": [
    {
      "byteLength": 1544112,
      "uri": "scene.bin"
    }
  ],
  "extensionsUsed": [
    "KHR_materials_unlit"
  ],
  "images": [
    {
      "uri": "textures/Base_baseColor.png"
    },
    {
      "uri": "textures/Wood_baseColor.png"
    }
  ],
  "materials": [
    {
      "extensions": {
        "KHR_materials_unlit": {}
      },
      "name": "Base",
      "pbrMetallicRoughness": {
        "baseColorTexture": {
          "index": 0
        },
        "metallicFactor": 0.0
      }
    },
    {
      "extensions": {
        "KHR_materials_unlit": {}
      },
      "name": "DarkBlue",
      "pbrMetallicRoughness": {
        "baseColorTexture": {
          "index": 0
        },
        "metallicFactor": 0.0
      }
    },
    {
      "doubleSided": true,
      "extensions": {
        "KHR_materials_unlit": {}
      },
      "name": "DarkWood",
      "pbrMetallicRoughness": {
        "baseColorTexture": {
          "index": 0
        },
        "metallicFactor": 0.0
      }
    },
    {
      "emissiveFactor": [
        1.0,
        1.0,
        1.0
      ],
      "extensions": {
        "KHR_materials_unlit": {}
      },
      "name": "EmmWhite",
      "pbrMetallicRoughness": {
        "baseColorTexture": {
          "index": 0
        },
        "metallicFactor": 0.0
      }
    },
    {
      "extensions": {
        "KHR_materials_unlit": {}
      },
      "name": "Wood",
      "pbrMetallicRoughness": {
        "baseColorTexture": {
          "index": 1
        },
        "metallicFactor": 0.0
      }
    },
    {
      "extensions": {
        "KHR_materials_unlit": {}
      },
      "name": "GreyMetal",
      "pbrMetallicRoughness": {
        "baseColorTexture": {
          "index": 0
        },
        "metallicFactor": 0.0
      }
    },
    {
      "extensions": {
        "KHR_materials_unlit": {}
      },
      "name": "LightBlue",
      "pbrMetallicRoughness": {
        "baseColorTexture": {
          "index": 0
        },
        "metallicFactor": 0.0
      }
    },
    {
      "doubleSided": true,
      "extensions": {
        "KHR_materials_unlit": {}
      },
      "name": "ChairMat",
      "pbrMetallicRoughness": {
        "baseColorFactor": [
          0.0,
          0.111932,
          0.238398,
          1.0
        ],
        "metallicFactor": 0.0
      }
    }
  ],
  "meshes": [
    {
      "name": "Object_0",
      "primitives": [
        {
          "attributes": {
            "NORMAL": 1,
            "POSITION": 0,
            "TEXCOORD_0": 2
          },
          "indices": 3,
          "material": 0,
          "mode": 4
        }
      ]
    },
    {
      "name": "Object_1",
      "primitives": [
        {
          "attributes": {
            "NORMAL": 5,
            "POSITION": 4,
            "TEXCOORD_0": 6
          },
          "indices": 7,
          "material": 1,
          "mode": 4
        }
      ]
    },
    {
      "name": "Object_2",
      "primitives": [
        {
          "attributes": {
            "NORMAL": 9,
            "POSITION": 8,
            "TEXCOORD_0": 10
          },
          "indices": 11,
          "material": 2,
          "mode": 4
        }
      ]
    },
    {
      "name": "Object_3",
      "primitives": [
        {
          "attributes": {
            "NORMAL": 13,
            "POSITION": 12,
            "TEXCOORD_0": 14
          },
          "indices": 15,
          "material": 3,
          "mode": 4
        }
      ]
    },
    {
      "name": "Object_4",
      "primitives": [
        {
          "attributes": {
            "NORMAL": 17,
            "POSITION": 16,
            "TEXCOORD_0": 18
          },
          "indices": 19,
          "material": 4,
          "mode": 4
        }
      ]
    },
    {
      "name": "Object_5",
      "primitives": [
        {
          "attributes": {
            "NORMAL": 21,
            "POSITION": 20,
            "TEXCOORD_0": 22
          },
          "indices": 23,
          "material": 5,
          "mode": 4
        }
      ]
    },
    {
      "name": "Object_6",
      "primitives": [
        {
          "attributes": {
            "NORMAL": 25,
            "POSITION": 24,
            "TEXCOORD_0": 26
          },
          "indices": 27,
          "material": 6,
          "mode": 4
        }
      ]
    },
    {
      "name": "Object_7",
      "primitives": [
        {
          "attributes": {
            "NORMAL": 29,
            "POSITION": 28,
            "TEXCOORD_0": 30
          },
          "indices": 31,
          "material": 7,
          "mode": 4
        }
      ]
    }
  ],
  "nodes": [
    {
      "children": [
        1
      ],
      "matrix": [
        1.0,
        0.0,
        0.0,
        0.0,
        0.0,
        2.220446049250313e-16,
        -1.0,
        0.0,
        0.0,
        1.0,
        2.220446049250313e-16,
        0.0,
        0.0,
        0.0,
        0.0,
        1.0
      ],
      "name": "Sketchfab_model"
    },
    {
      "children": [
        2
      ],
      "name": "root"
    },
    {
      "children": [
        3
      ],
      "matrix": [
        1.0,
        0.0,
        0.0,
        0.0,
        0.0,
        2.220446049250313e-16,
        1.0,
        0.0,
        0.0,
        -1.0,
        2.220446049250313e-16,
        0.0,
        0.0,
        0.0,
        0.0,
        1.0
      ],
      "name": "GLTF_SceneRootNode"
    },
    {
      "children": [
        4,
        5,
        6,
        7,
        8,
        9,
        10,
        11
      ],
      "name": "BuildingArchitecture.003_0"
    },
    {
      "mesh": 0,
      "name": "Object_4"
    },
    {
      "mesh": 1,
      "name": "Object_5"
    },
    {
      "mesh": 2,
      "name": "Object_6"
    },
    {
      "mesh": 3,
      "name": "Object_7"
    },
    {
      "mesh": 4,
      "name": "Object_8"
    },
    {
      "mesh": 5,
      "name": "Object_9"
    },
    {
      "mesh": 6,
      "name": "Object_10"
    },
    {
      "mesh": 7,
      "name": "Object_11"
    }
  ],
  "samplers": [
    {
      "magFilter": 9729,
      "minFilter": 9987,
      "wrapS": 10497,
      "wrapT": 10497
    }
  ],
  "scene": 0,
  "scenes": [
    {
      "name": "Sketchfab_Scene",
      "nodes": [
        0
      ]
    }
  ],
  "textures": [
    {
      "sampler": 0,
      "source": 0
    },
    {
      "sampler": 0,
      "source": 1
    }
  ]
}
